<?xml version="1.0" encoding="UTF-8" standalone="no"?><svg xmlns="http://www.w3.org/2000/svg" xmlns:xlink="http://www.w3.org/1999/xlink" contentStyleType="text/css" height="467px" preserveAspectRatio="none" style="width:887px;height:467px;background:#FFFFFF;" version="1.1" viewBox="0 0 887 467" width="887px" zoomAndPan="magnify"><defs/><g><!--MD5=[64e2e010ba86d7988e5cd73bd64f61f9]
cluster ui--><g id="cluster_ui"><path d="M84.5,6 L166.5,6 A3.75,3.75 0 0 1 169,8.5 L176,29.6094 L336.5,29.6094 A2.5,2.5 0 0 1 339,32.1094 L339,457.5 A2.5,2.5 0 0 1 336.5,460 L84.5,460 A2.5,2.5 0 0 1 82,457.5 L82,8.5 A2.5,2.5 0 0 1 84.5,6 " fill="none" style="stroke:#000000;stroke-width:1.5;"/><line style="stroke:#000000;stroke-width:1.5;" x1="82" x2="176" y1="29.6094" y2="29.6094"/><text fill="#000000" font-family="sans-serif" font-size="14" font-weight="bold" lengthAdjust="spacing" textLength="81" x="86" y="22.5332">Headline-UI</text></g><!--MD5=[7442f3b126ee602ae02566c1a49e158a]
cluster api--><g id="cluster_api"><path d="M374.5,20 L464.5,20 A3.75,3.75 0 0 1 467,22.5 L474,43.6094 L877.5,43.6094 A2.5,2.5 0 0 1 880,46.1094 L880,393.5 A2.5,2.5 0 0 1 877.5,396 L374.5,396 A2.5,2.5 0 0 1 372,393.5 L372,22.5 A2.5,2.5 0 0 1 374.5,20 " fill="none" style="stroke:#000000;stroke-width:1.5;"/><line style="stroke:#000000;stroke-width:1.5;" x1="372" x2="474" y1="43.6094" y2="43.6094"/><text fill="#000000" font-family="sans-serif" font-size="14" font-weight="bold" lengthAdjust="spacing" textLength="89" x="376" y="36.5332">Headline-API</text></g><g id="elem_present"><ellipse cx="210.2827" cy="128.9565" fill="#F1F1F1" rx="80.2827" ry="18.4565" style="stroke:#181818;stroke-width:0.5;"/><text fill="#000000" font-family="sans-serif" font-size="14" lengthAdjust="spacing" textLength="115" x="151.9192" y="132.9341">Present Headlines</text></g><g id="elem_list"><ellipse cx="210.6531" cy="58.9306" fill="#F1F1F1" rx="70.1531" ry="16.4306" style="stroke:#181818;stroke-width:0.5;"/><text fill="#000000" font-family="sans-serif" font-size="14" lengthAdjust="spacing" textLength="88" x="163.6531" y="63.4472">List Headlines</text></g><g id="elem_create"><ellipse cx="210.7256" cy="267.9451" fill="#F1F1F1" rx="75.2256" ry="17.4451" style="stroke:#181818;stroke-width:0.5;"/><text fill="#000000" font-family="sans-serif" font-size="14" lengthAdjust="spacing" textLength="102" x="156.7256" y="272.4617">Create Headline</text></g><g id="elem_edit"><ellipse cx="210.4277" cy="199.0855" fill="#F1F1F1" rx="68.4277" ry="16.0855" style="stroke:#181818;stroke-width:0.5;"/><text fill="#000000" font-family="sans-serif" font-size="14" lengthAdjust="spacing" textLength="83" x="165.9277" y="203.6021">Edit Headline</text></g><g id="elem_active"><ellipse cx="210.2614" cy="345.8523" fill="#F1F1F1" rx="112.2614" ry="24.8523" style="stroke:#181818;stroke-width:0.5;"/><text fill="#000000" font-family="sans-serif" font-size="14" lengthAdjust="spacing" textLength="188" x="116.2614" y="349.5808">Activate / Deactivate Headline</text></g><g id="elem_navigate"><ellipse cx="210.597" cy="425.1194" fill="#F1F1F1" rx="81.097" ry="18.6194" style="stroke:#181818;stroke-width:0.5;"/><text fill="#000000" font-family="sans-serif" font-size="14" lengthAdjust="spacing" textLength="117" x="151.5843" y="428.9982">Back to Navigation</text></g><g id="elem_filter"><ellipse cx="500.7427" cy="73.1485" fill="#F1F1F1" rx="73.7427" ry="17.1485" style="stroke:#181818;stroke-width:0.5;"/><text fill="#000000" font-family="sans-serif" font-size="14" lengthAdjust="spacing" textLength="98" x="448.7427" y="77.6651">Filter Headlines</text></g><g id="elem_getOne"><ellipse cx="500.5887" cy="141.0177" fill="#F1F1F1" rx="68.0887" ry="16.0177" style="stroke:#181818;stroke-width:0.5;"/><text fill="#000000" font-family="sans-serif" font-size="14" lengthAdjust="spacing" textLength="82" x="456.5887" y="145.5343">Get Headline</text></g><g id="elem_post"><ellipse cx="500.7256" cy="209.9451" fill="#F1F1F1" rx="75.2256" ry="17.4451" style="stroke:#181818;stroke-width:0.5;"/><text fill="#000000" font-family="sans-serif" font-size="14" lengthAdjust="spacing" textLength="102" x="446.7256" y="214.4617">Create Headline</text></g><g id="elem_put"><ellipse cx="500.4277" cy="279.0855" fill="#F1F1F1" rx="68.4277" ry="16.0855" style="stroke:#181818;stroke-width:0.5;"/><text fill="#000000" font-family="sans-serif" font-size="14" lengthAdjust="spacing" textLength="83" x="455.9277" y="283.6021">Edit Headline</text></g><g id="elem_patch"><ellipse cx="500.2614" cy="354.8523" fill="#F1F1F1" rx="112.2614" ry="24.8523" style="stroke:#181818;stroke-width:0.5;"/><text fill="#000000" font-family="sans-serif" font-size="14" lengthAdjust="spacing" textLength="188" x="406.2614" y="358.5808">Activate / Deactivate Headline</text></g><g id="elem_authenticate"><ellipse cx="797.0842" cy="209.8168" fill="#F1F1F1" rx="67.0842" ry="15.8168" style="stroke:#181818;stroke-width:0.5;"/><text fill="#000000" font-family="sans-serif" font-size="14" lengthAdjust="spacing" textLength="79" x="754.5842" y="214.3334">Authenticate</text></g><!--MD5=[7d46d6cd919e02e6168a09ad91eae8b4]
entity u--><g id="elem_u"><ellipse cx="20.5" cy="210.5" fill="#F1F1F1" rx="8" ry="8" style="stroke:#181818;stroke-width:0.5;"/><path d="M20.5,218.5 L20.5,245.5 M7.5,226.5 L33.5,226.5 M20.5,245.5 L7.5,260.5 M20.5,245.5 L33.5,260.5 " fill="none" style="stroke:#181818;stroke-width:0.5;"/><text fill="#000000" font-family="sans-serif" font-size="14" lengthAdjust="spacing" textLength="29" x="6" y="276.5332">User</text></g><!--MD5=[7cc85d63fcb4d71abf303db443ff6744]
link u to present--><g id="link_u_present"><path d="M35.16,211.86 C44.09,195.81 57.21,176.81 74,165 C91.79,152.49 113.66,144.33 134.6,139 " fill="none" id="u-to-present" style="stroke:#181818;stroke-width:1.0;"/><polygon fill="#181818" points="139.62,137.77,129.9281,136.0185,134.7626,138.9558,131.8254,143.7903,139.62,137.77" style="stroke:#181818;stroke-width:1.0;"/></g><!--MD5=[4109190b4dc92fff3517f8bb19b72e3b]
link u to list--><g id="link_u_list"><path d="M25.22,201.7 C30.5,168.14 43.24,120.97 74,93 C91.27,77.3 114.7,68.6 137.22,63.85 " fill="none" id="u-to-list" style="stroke:#181818;stroke-width:1.0;"/><polygon fill="#181818" points="142.31,62.84,132.704,60.6666,137.4055,63.8123,134.2597,68.5138,142.31,62.84" style="stroke:#181818;stroke-width:1.0;"/></g><!--MD5=[57e68c2361d44b75861715659e999306]
link u to create--><g id="link_u_create"><path d="M35.02,242.94 C57.02,246.1 102,252.56 140.78,258.13 " fill="none" id="u-to-create" style="stroke:#181818;stroke-width:1.0;"/><polygon fill="#181818" points="145.96,258.87,137.6225,253.6273,141.0111,258.1569,136.4815,261.5455,145.96,258.87" style="stroke:#181818;stroke-width:1.0;"/></g><!--MD5=[eeed9548258b61579e5165066675e0cf]
link u to edit--><g id="link_u_edit"><path d="M35.12,236.58 C43.65,233.89 54.9,230.52 65,228 C92.81,221.07 123.96,214.65 150.19,209.62 " fill="none" id="u-to-edit" style="stroke:#181818;stroke-width:1.0;"/><polygon fill="#181818" points="155.37,208.64,145.7838,206.3806,150.4569,209.5683,147.2692,214.2415,155.37,208.64" style="stroke:#181818;stroke-width:1.0;"/></g><!--MD5=[7269e84958322db35575f610d8164c19]
link u to active--><g id="link_u_active"><path d="M35.19,262.68 C44.62,276.02 58.27,292.52 74,303 C89.11,313.07 106.73,320.9 124.17,326.95 " fill="none" id="u-to-active" style="stroke:#181818;stroke-width:1.0;"/><polygon fill="#181818" points="129.08,328.61,121.8308,321.943,124.3423,327.0117,119.2736,329.5233,129.08,328.61" style="stroke:#181818;stroke-width:1.0;"/></g><!--MD5=[f6e46f49594c9e0438d0e3134fa39c03]
link u to navigate--><g id="link_u_navigate"><path d="M25.49,280.21 C30.94,313.43 43.78,360.01 74,388 C89.49,402.34 109.99,411.22 130.35,416.68 " fill="none" id="u-to-navigate" style="stroke:#181818;stroke-width:1.0;"/><polygon fill="#181818" points="135.24,417.93,127.5168,411.8183,130.3969,416.6871,125.5282,419.5672,135.24,417.93" style="stroke:#181818;stroke-width:1.0;"/></g><!--MD5=[4f377347938b8f4092fe3329003e5738]
link filter to authenticate--><g id="link_filter_authenticate"><path d="M548.94,85.82 C568.94,91.65 592.32,99.02 613,107 C652.88,122.39 662.63,127.25 700,148 C724.51,161.61 751.21,179.09 770.22,192.01 " fill="none" id="filter-to-authenticate" style="stroke:#181818;stroke-width:1.0;stroke-dasharray:7.0,7.0;"/><polygon fill="#181818" points="774.4,194.87,769.2164,186.4956,770.2686,192.0538,764.7104,193.1059,774.4,194.87" style="stroke:#181818;stroke-width:1.0;"/><text fill="#000000" font-family="sans-serif" font-size="13" lengthAdjust="spacing" textLength="55" x="644" y="116.4951">«include»</text></g><!--MD5=[834637152c7b0f856affe73c1af94abd]
link getOne to authenticate--><g id="link_getOne_authenticate"><path d="M550.92,151.89 C591.13,160.82 649.3,173.92 700,186 C714.86,189.54 730.99,193.52 745.7,197.2 " fill="none" id="getOne-to-authenticate" style="stroke:#181818;stroke-width:1.0;stroke-dasharray:7.0,7.0;"/><polygon fill="#181818" points="750.63,198.44,742.8731,192.3712,745.7801,197.224,740.9274,200.131,750.63,198.44" style="stroke:#181818;stroke-width:1.0;"/><text fill="#000000" font-family="sans-serif" font-size="13" lengthAdjust="spacing" textLength="55" x="644" y="170.4951">«include»</text></g><!--MD5=[b5cd9e798ce4e76a2f6398112218e5dd]
link post to authenticate--><g id="link_post_authenticate"><path d="M575.81,210 C621.43,210 679.53,210 724.6,210 " fill="none" id="post-to-authenticate" style="stroke:#181818;stroke-width:1.0;stroke-dasharray:7.0,7.0;"/><polygon fill="#181818" points="729.75,210,720.75,206,724.75,210,720.75,214,729.75,210" style="stroke:#181818;stroke-width:1.0;"/><text fill="#000000" font-family="sans-serif" font-size="13" lengthAdjust="spacing" textLength="55" x="644" y="206.4951">«include»</text></g><!--MD5=[06527196d6ebb443d35351340e932fd1]
link put to authenticate--><g id="link_put_authenticate"><path d="M553.08,268.58 C593.24,260.29 650.32,248.1 700,236 C715.68,232.18 732.7,227.69 747.99,223.52 " fill="none" id="put-to-authenticate" style="stroke:#181818;stroke-width:1.0;stroke-dasharray:7.0,7.0;"/><polygon fill="#181818" points="753.11,222.12,743.3754,220.6241,748.2855,223.4332,745.4765,228.3433,753.11,222.12" style="stroke:#181818;stroke-width:1.0;"/><text fill="#000000" font-family="sans-serif" font-size="13" lengthAdjust="spacing" textLength="55" x="644" y="232.4951">«include»</text></g><!--MD5=[bf18a4f019d95798dc3710e72dc59f5d]
link patch to authenticate--><g id="link_patch_authenticate"><path d="M563.54,334.19 C603.55,319.77 656.11,298.9 700,275 C725.47,261.13 752.69,242.28 771.61,228.45 " fill="none" id="patch-to-authenticate" style="stroke:#181818;stroke-width:1.0;stroke-dasharray:7.0,7.0;"/><polygon fill="#181818" points="775.76,225.4,766.1379,227.5011,771.7293,228.3587,770.8718,233.9501,775.76,225.4" style="stroke:#181818;stroke-width:1.0;"/><text fill="#000000" font-family="sans-serif" font-size="13" lengthAdjust="spacing" textLength="55" x="644" y="271.4951">«include»</text></g><!--MD5=[1d30f40537966a098a20adb59289aaba]
link present to filter--><g id="link_present_filter"><path d="M272.58,117.12 C321.43,107.63 389.59,94.37 438.43,84.87 " fill="none" id="present-to-filter" style="stroke:#181818;stroke-width:1.0;stroke-dasharray:7.0,7.0;"/><polygon fill="#181818" points="443.39,83.91,433.7901,81.7096,438.4827,84.8686,435.3238,89.5612,443.39,83.91" style="stroke:#181818;stroke-width:1.0;"/></g><!--MD5=[25f31f32d6638cd09109349ab2303c13]
link present to getOne--><g id="link_present_getOne"><path d="M289.82,132.26 C333.03,134.06 386.29,136.28 428.32,138.03 " fill="none" id="present-to-getOne" style="stroke:#181818;stroke-width:1.0;stroke-dasharray:7.0,7.0;"/><polygon fill="#181818" points="433.39,138.25,424.5695,133.8683,428.3946,138.0359,424.227,141.861,433.39,138.25" style="stroke:#181818;stroke-width:1.0;"/></g><!--MD5=[0e842164cbe240508107b4c67231e948]
link list to filter--><g id="link_list_filter"><path d="M279.39,62.3 C322.54,64.4 378.49,67.12 423.19,69.29 " fill="none" id="list-to-filter" style="stroke:#181818;stroke-width:1.0;stroke-dasharray:7.0,7.0;"/><polygon fill="#181818" points="428.3,69.54,419.5053,65.1069,423.3059,69.2967,419.116,73.0974,428.3,69.54" style="stroke:#181818;stroke-width:1.0;"/></g><!--MD5=[b8c1561875c1519daae7e4ea0a378d84]
link create to post--><g id="link_create_post"><path d="M267.71,256.68 C316.62,246.83 387.36,232.58 437.81,222.42 " fill="none" id="create-to-post" style="stroke:#181818;stroke-width:1.0;stroke-dasharray:7.0,7.0;"/><polygon fill="#181818" points="442.94,221.39,433.3279,219.2435,438.0382,222.3761,434.9056,227.0864,442.94,221.39" style="stroke:#181818;stroke-width:1.0;"/></g><!--MD5=[25810f7b7c01a87deee4f35d5f9d5ae7]
link edit to getOne--><g id="link_edit_getOne"><path d="M262.99,188.63 C313.62,178.44 390.7,162.91 442.99,152.38 " fill="none" id="edit-to-getOne" style="stroke:#181818;stroke-width:1.0;stroke-dasharray:7.0,7.0;"/><polygon fill="#181818" points="447.97,151.38,438.3579,149.2335,443.0682,152.3661,439.9356,157.0764,447.97,151.38" style="stroke:#181818;stroke-width:1.0;"/></g><!--MD5=[62b1ec24e089ed0ef58769cd176fce5b]
link edit to put--><g id="link_edit_put"><path d="M267.13,208.13 C292.25,213.46 321.87,221.47 347,233 C355.41,236.86 355.59,241.14 364,245 C387.46,255.77 414.83,263.46 438.81,268.77 " fill="none" id="edit-to-put" style="stroke:#181818;stroke-width:1.0;stroke-dasharray:7.0,7.0;"/><polygon fill="#181818" points="443.87,269.87,435.9195,264.0571,438.9831,268.8126,434.2276,271.8762,443.87,269.87" style="stroke:#181818;stroke-width:1.0;"/></g><!--MD5=[ca25b85a38ac3ec99748068559063356]
link active to patch--><g id="link_active_patch"><path d="M322.02,349.45 C342.21,350.08 363.31,350.74 383.64,351.38 " fill="none" id="active-to-patch" style="stroke:#181818;stroke-width:1.0;stroke-dasharray:7.0,7.0;"/><polygon fill="#181818" points="388.8,351.54,379.9305,347.2585,383.8025,351.3825,379.6785,355.2545,388.8,351.54" style="stroke:#181818;stroke-width:1.0;"/></g><!--MD5=[035f3ae93e4ccad02963cc1344a17965]
@startuml usecases
left to right direction

actor User as u

package Headline-UI as ui {
  usecase "Present Headlines" as present
  usecase "List Headlines" as list
  usecase "Create Headline" as create
  usecase "Edit Headline" as edit
  usecase "Activate / Deactivate Headline" as active
  usecase "Back to Navigation" as navigate
}

u - -> present
u - -> list
u - -> create
u - -> edit
u - -> active
u - -> navigate

package Headline-API as api {
  usecase "Filter Headlines" as filter
  usecase "Get Headline" as getOne
  usecase "Create Headline" as post
  usecase "Edit Headline" as put
  usecase "Activate / Deactivate Headline" as patch
	usecase "Authenticate" as authenticate

	filter ..> authenticate : <<include>>
	getOne ..> authenticate : <<include>>
	post ..> authenticate : <<include>>
	put ..> authenticate : <<include>>
	patch ..> authenticate : <<include>>
}

present ..> filter
present ..> getOne
list ..> filter
create ..> post
edit ..> getOne
edit ..> put
active ..> patch

@enduml

PlantUML version 1.2022.7(Mon Aug 22 19:01:30 CAT 2022)
(GPL source distribution)
Java Runtime: OpenJDK Runtime Environment
JVM: OpenJDK 64-Bit Server VM
Default Encoding: Cp1252
Language: en
Country: ZA
--></g></svg>